# xmcd
# Copyright (C) 1995-1998 Ti Kan
#
# Track frame offsets:
#       150
#       10800
#       31875
#       44350
#       65950
#       87625
#       105942
#       123520
#       141775
#       159975
#       185992
#       203650
#
# Disc length: 2972 seconds
#
# Revision: 0
# Processed by: cddbd v1.5.2PL0 Copyright (c) Steve Scherf et al.
# Submitted via: CD-Transfer v1.0
#
DISCID=a60b9a0c
DTITLE=Junes - 
DYEAR=10
DGENRE=
TTITLE0=Autumn
TTITLE1=Come Closer
TTITLE2=Crawling Over Me
TTITLE3=The Way Down To Rome
TTITLE4=Take Away My Pain
TTITLE5=Save Me
TTITLE6=Pieces
TTITLE7=Walking On Ropes
TTITLE8=Fall
TTITLE9=It Doesn't Matter
TTITLE10=High And Low
TTITLE11=Jealousy
EXTD=
EXTT0=
EXTT1=
EXTT2=
EXTT3=
EXTT4=
EXTT5=
EXTT6=
EXTT7=
EXTT8=
EXTT9=
EXTT10=
EXTT11=
PLAYORDER=
